<?xml version="1.0" encoding="utf-8"?>
<svg version="1.1" xmlns:xlink="http://www.w3.org/1999/xlink" width="37px" height="28px" xmlns="http://www.w3.org/2000/svg">
  <g transform="matrix(1 0 0 1 -389 -328 )">
    <path d="M 17.7015693967631 11.94921875  C 16.3406081412457 13.31640625  14.698381559588 14  12.7748896517901 14  C 10.8513977439922 14  9.20917116233448 13.31640625  7.84820990681707 11.94921875  C 6.48724865129966 10.58203125  5.80676802354095 8.93229166666667  5.80676802354095 7  C 5.80676802354095 5.06770833333333  6.48724865129966 3.41796875  7.84820990681707 2.05078125  C 9.20917116233448 0.68359375  10.8513977439922 0  12.7748896517901 0  C 14.698381559588 0  16.3406081412457 0.68359375  17.7015693967631 2.05078125  C 19.0625306522805 3.41796875  19.7430112800392 5.06770833333333  19.7430112800392 7  C 19.7430112800392 8.93229166666667  19.0625306522805 10.58203125  17.7015693967631 11.94921875  Z M 36.8366846493379 15.2942708333333  L 32.3182932810201 19.8333333333333  L 36.8366846493379 24.3723958333333  C 36.9455615497793 24.4817708333333  37 24.6215277777778  37 24.7916666666667  C 37 24.9496527777778  36.9455615497793 25.0833333333333  36.8366846493379 25.1927083333333  L 34.368808239333 27.671875  C 34.2599313388916 27.78125  34.1268595716855 27.8359375  33.9695929377146 27.8359375  C 33.8002288703613 27.8359375  33.661108386464 27.78125  33.5522314860226 27.671875  L 29.0338401177048 23.1328125  L 24.515448749387 27.671875  C 24.4065718489456 27.78125  24.2674513650482 27.8359375  24.0980872976949 27.8359375  C 23.9408206637241 27.8359375  23.8077488965179 27.78125  23.6988719960765 27.671875  L 21.2309955860716 25.1927083333333  C 21.1221186856302 25.0833333333333  21.0676802354095 24.9496527777778  21.0676802354095 24.7916666666667  C 21.0676802354095 24.6215277777778  21.1221186856302 24.4817708333333  21.2309955860716 24.3723958333333  L 25.7493869543894 19.8333333333333  L 21.2309955860716 15.2942708333333  C 21.1221186856302 15.1848958333333  21.0676802354095 15.0451388888889  21.0676802354095 14.875  C 21.0676802354095 14.7170138888889  21.1221186856302 14.5833333333333  21.2309955860716 14.4739583333333  L 23.6988719960765 11.9947916666667  C 23.8077488965179 11.8854166666667  23.9408206637241 11.8307291666667  24.0980872976949 11.8307291666667  C 24.2674513650482 11.8307291666667  24.4065718489456 11.8854166666667  24.515448749387 11.9947916666667  L 29.0338401177048 16.5338541666667  L 33.5522314860226 11.9947916666667  C 33.661108386464 11.8854166666667  33.8002288703613 11.8307291666667  33.9695929377146 11.8307291666667  C 34.1268595716855 11.8307291666667  34.2599313388916 11.8854166666667  34.368808239333 11.9947916666667  L 36.8366846493379 14.4739583333333  C 36.9455615497793 14.5833333333333  37 14.7170138888889  37 14.875  C 37 15.0451388888889  36.9455615497793 15.1848958333333  36.8366846493379 15.2942708333333  Z M 19.9970573810692 16.5338541666667  L 23.2815105443845 19.8333333333333  L 19.9970573810692 23.1328125  C 19.5494523459212 23.5824652777778  19.3256498283472 24.1354166666667  19.3256498283472 24.7916666666667  C 19.3256498283472 25.4357638888889  19.5494523459212 25.9826388888889  19.9970573810692 26.4322916666667  L 21.5031878371751 27.9453125  C 21.2491417361452 27.9817708333333  20.9829982017329 28  20.7047572339382 28  L 4.84502206964198 28  C 3.38123263037437 28  2.2077815922838 27.5807291666667  1.32466895537028 26.7421875  C 0.44155631845676 25.9036458333333  0 24.7491319444444  0 23.2786458333333  C 0 22.6345486111111  0.0211705084191597 22.0056423611111  0.0635115252574792 21.3919270833333  C 0.105852542095799 20.7782118055556  0.190534575772437 20.1158854166667  0.317557626287396 19.4049479166667  C 0.444580676802354 18.6940104166667  0.604871669118849 18.0347222222222  0.798430603236881 17.4270833333333  C 0.991989537354913 16.8194444444444  1.25208435507602 16.2269965277778  1.5787150564002 15.6497395833333  C 1.90534575772437 15.0724826388889  2.28036619257806 14.5802951388889  2.70377636096126 14.1731770833333  C 3.12718652934445 13.7660590277778  3.64435180644107 13.4409722222222  4.2552721922511 13.1979166666667  C 4.86619257806114 12.9548611111111  5.54062448912866 12.8333333333333  6.27856792545365 12.8333333333333  C 6.50841915971882 12.8333333333333  6.74431911067517 12.9366319444444  6.98626777832271 13.1432291666667  C 8.84927251920876 14.6258680555556  10.7788131436979 15.3671875  12.7748896517901 15.3671875  C 14.7709661598823 15.3671875  16.7005067843714 14.6258680555556  18.5635115252575 13.1432291666667  C 18.805460192905 12.9366319444444  19.0413601438614 12.8333333333333  19.2712113781265 12.8333333333333  C 19.6099395128331 12.8333333333333  19.9547163642308 12.8697916666667  20.3055419323198 12.9427083333333  C 19.9668137976132 13.2708333333333  19.7188164132745 13.5746527777778  19.5615497793036 13.8541666666667  C 19.4042831453327 14.1336805555556  19.3256498283472 14.4739583333333  19.3256498283472 14.875  C 19.3256498283472 15.53125  19.5494523459212 16.0842013888889  19.9970573810692 16.5338541666667  Z " fill-rule="nonzero" fill="#d9001b" stroke="none" transform="matrix(1 0 0 1 389 328 )" />
  </g>
</svg>